<?xml version="1.0" standalone="no"?>
<!DOCTYPE svg PUBLIC "-//W3C//DTD SVG 20010904//EN"
 "http://www.w3.org/TR/2001/REC-SVG-20010904/DTD/svg10.dtd">
<svg version="1.0" xmlns="http://www.w3.org/2000/svg"
 width="700.000000pt" height="700.000000pt" viewBox="0 0 700.000000 700.000000"
 preserveAspectRatio="xMidYMid meet">
<metadata>
Created by potrace 1.14, written by Peter Selinger 2001-2017
</metadata>
<g transform="translate(0.000000,700.000000) scale(0.100000,-0.100000)"
fill="#000000" stroke="none">
<path d="M441 6455 c-102 -23 -187 -71 -271 -155 -122 -121 -174 -255 -166
-427 13 -261 208 -480 471 -528 62 -11 6008 -6 6069 6 249 46 440 267 452 523
11 229 -109 436 -310 535 -133 65 111 61 -3186 60 -2509 0 -3005 -3 -3059 -14z"/>
<path d="M527 4064 c-1 -1 -23 -4 -49 -7 -199 -24 -387 -186 -453 -392 -27
-82 -27 -246 0 -330 62 -194 233 -350 426 -387 54 -11 658 -13 3065 -12 1650
1 3008 4 3019 7 11 3 40 10 65 17 74 19 171 79 236 146 237 240 210 634 -57
840 -64 49 -167 97 -234 110 -32 5 -6011 14 -6018 8z"/>
<path d="M826 1663 c-1 -1 -76 -3 -167 -3 -185 -2 -236 -10 -324 -50 -150 -68
-257 -190 -311 -355 -25 -73 -27 -221 -5 -305 51 -193 223 -358 424 -405 54
-13 456 -15 3057 -15 3298 0 3050 -4 3189 62 88 42 204 158 248 249 126 257
49 560 -184 720 -61 42 -139 75 -209 89 -43 8 -819 12 -2887 13 -1556 1 -2830
1 -2831 0z"/>
</g>
</svg>
